<svg width="68" height="68" viewBox="0 0 68 68" fill="none" xmlns="http://www.w3.org/2000/svg">
<circle cx="34" cy="34" r="33" stroke="white" stroke-width="2"/>
<path d="M36.75 42.7947V24.9707C36.75 24.1828 36.4383 23.4272 35.8835 22.8701C35.3287 22.313 34.5763 22 33.7917 22H21.9583C21.1737 22 20.4213 22.313 19.8665 22.8701C19.3117 23.4272 19 24.1828 19 24.9707V41.3093C19 41.7033 19.1558 42.0811 19.4332 42.3596C19.7106 42.6382 20.0869 42.7947 20.4792 42.7947H23.4375" stroke="white" stroke-width="2" stroke-linecap="round" stroke-linejoin="round"/>
<path d="M38.229 42.7949H29.354" stroke="white" stroke-width="2" stroke-linecap="round" stroke-linejoin="round"/>
<path d="M44.1458 42.7947H47.1042C47.4965 42.7947 47.8727 42.6382 48.1501 42.3597C48.4275 42.0811 48.5833 41.7033 48.5833 41.3094V35.8879C48.5827 35.5509 48.468 35.224 48.2579 34.9611L43.1104 28.4999C42.9721 28.3259 42.7966 28.1854 42.5969 28.0887C42.3972 27.9921 42.1784 27.9417 41.9567 27.9414H36.75" stroke="white" stroke-width="2" stroke-linecap="round" stroke-linejoin="round"/>
<path d="M41.1873 45.7656C42.8212 45.7656 44.1457 44.4355 44.1457 42.7949C44.1457 41.1542 42.8212 39.8242 41.1873 39.8242C39.5535 39.8242 38.229 41.1542 38.229 42.7949C38.229 44.4355 39.5535 45.7656 41.1873 45.7656Z" stroke="white" stroke-width="2" stroke-linecap="round" stroke-linejoin="round"/>
<path d="M26.3958 45.7656C28.0297 45.7656 29.3542 44.4355 29.3542 42.7949C29.3542 41.1542 28.0297 39.8242 26.3958 39.8242C24.762 39.8242 23.4375 41.1542 23.4375 42.7949C23.4375 44.4355 24.762 45.7656 26.3958 45.7656Z" stroke="white" stroke-width="2" stroke-linecap="round" stroke-linejoin="round"/>
</svg>
