<svg width="68" height="68" viewBox="0 0 68 68" fill="none" xmlns="http://www.w3.org/2000/svg">
<circle cx="34" cy="34" r="33" stroke="white" stroke-width="2"/>
<path d="M38.9515 34.9453L41.022 46.646C41.0452 46.7838 41.0259 46.9254 40.9668 47.0519C40.9077 47.1784 40.8115 47.2837 40.6911 47.3539C40.5708 47.424 40.432 47.4555 40.2933 47.4443C40.1546 47.4331 40.0226 47.3796 39.915 47.291L35.0224 43.6035C34.7862 43.4263 34.4992 43.3306 34.2044 43.3306C33.9096 43.3306 33.6227 43.4263 33.3865 43.6035L28.4856 47.2896C28.3781 47.3781 28.2463 47.4315 28.1077 47.4427C27.9692 47.4539 27.8306 47.4225 27.7103 47.3526C27.59 47.2826 27.4938 47.1775 27.4346 47.0513C27.3753 46.9251 27.3558 46.7837 27.3786 46.646L29.4478 34.9453" stroke="white" stroke-width="2" stroke-linecap="round" stroke-linejoin="round"/>
<path d="M34.2 36.4682C38.7287 36.4682 42.3999 32.7817 42.3999 28.2341C42.3999 23.6865 38.7287 20 34.2 20C29.6713 20 26 23.6865 26 28.2341C26 32.7817 29.6713 36.4682 34.2 36.4682Z" stroke="white" stroke-width="2" stroke-linecap="round" stroke-linejoin="round"/>
</svg>
