<svg width="68" height="68" viewBox="0 0 68 68" fill="none" xmlns="http://www.w3.org/2000/svg">
<circle cx="34" cy="34" r="33" stroke="white" stroke-width="2"/>
<path d="M39.6667 46.0998V43.422C39.6667 42.0016 39.1048 40.6394 38.1046 39.635C37.1044 38.6307 35.7479 38.0664 34.3334 38.0664H26.3333C24.9189 38.0664 23.5623 38.6307 22.5621 39.635C21.5619 40.6394 21 42.0016 21 43.422V46.0998" stroke="white" stroke-width="2" stroke-linecap="round" stroke-linejoin="round"/>
<path d="M30.3334 32.7112C33.2789 32.7112 35.6668 30.3134 35.6668 27.3556C35.6668 24.3978 33.2789 22 30.3334 22C27.3879 22 25.0001 24.3978 25.0001 27.3556C25.0001 30.3134 27.3879 32.7112 30.3334 32.7112Z" stroke="white" stroke-width="2" stroke-linecap="round" stroke-linejoin="round"/>
<path d="M47.6672 46.1005V43.4227C47.6663 42.2361 47.273 41.0834 46.549 40.1455C45.825 39.2077 44.8114 38.5379 43.6672 38.2412" stroke="white" stroke-width="2" stroke-linecap="round" stroke-linejoin="round"/>
<path d="M39.6671 22.1738C40.8143 22.4688 41.8311 23.1388 42.5572 24.0782C43.2834 25.0175 43.6775 26.1729 43.6775 27.362C43.6775 28.5512 43.2834 29.7066 42.5572 30.6459C41.8311 31.5853 40.8143 32.2553 39.6671 32.5503" stroke="white" stroke-width="2" stroke-linecap="round" stroke-linejoin="round"/>
</svg>
