<svg width="68" height="68" viewBox="0 0 68 68" fill="none" xmlns="http://www.w3.org/2000/svg">
<circle cx="34" cy="34" r="33" stroke="white" stroke-width="2"/>
<path d="M45 34.91C45 41.687 40.4062 45.0755 34.9463 47.0409C34.6603 47.1409 34.3498 47.1361 34.0669 47.0273C28.5938 45.0755 24 41.687 24 34.91V25.4222C24 25.0627 24.1383 24.718 24.3844 24.4638C24.6306 24.2096 24.9644 24.0668 25.3125 24.0668C27.9375 24.0668 31.2187 22.4403 33.5025 20.3801C33.7806 20.1348 34.1343 20 34.5 20C34.8657 20 35.2194 20.1348 35.4975 20.3801C37.7944 22.4539 41.0625 24.0668 43.6875 24.0668C44.0356 24.0668 44.3694 24.2096 44.6156 24.4638C44.8617 24.718 45 25.0627 45 25.4222V34.91Z" stroke="white" stroke-width="2" stroke-linecap="round" stroke-linejoin="round"/>
</svg>
