<svg width="18" height="19" viewBox="0 0 18 19" fill="none" xmlns="http://www.w3.org/2000/svg">
<path d="M0.833496 17.4999H10.8335" stroke="#004AAD" stroke-width="1.66667" stroke-linecap="round" stroke-linejoin="round"/>
<path d="M1.6665 6.66663H9.99984" stroke="#004AAD" stroke-width="1.66667" stroke-linecap="round" stroke-linejoin="round"/>
<path d="M9.99984 17.5V2.50004C9.99984 2.05801 9.82424 1.63409 9.51168 1.32153C9.19912 1.00897 8.7752 0.833374 8.33317 0.833374H3.33317C2.89114 0.833374 2.46722 1.00897 2.15466 1.32153C1.8421 1.63409 1.6665 2.05801 1.6665 2.50004V17.5" stroke="#004AAD" stroke-width="1.66667" stroke-linecap="round" stroke-linejoin="round"/>
<path d="M10.0005 10H11.6672C12.1092 10 12.5331 10.1756 12.8457 10.4882C13.1582 10.8008 13.3338 11.2247 13.3338 11.6667V13.3334C13.3338 13.7754 13.5094 14.1993 13.822 14.5119C14.1345 14.8244 14.5585 15 15.0005 15C15.4425 15 15.8664 14.8244 16.179 14.5119C16.4916 14.1993 16.6672 13.7754 16.6672 13.3334V7.35837C16.6673 7.13845 16.624 6.92066 16.5396 6.71757C16.4552 6.51447 16.3315 6.33009 16.1755 6.17504L13.3338 3.33337" stroke="#004AAD" stroke-width="1.66667" stroke-linecap="round" stroke-linejoin="round"/>
</svg>
