<svg width="19" height="15" viewBox="0 0 19 15" fill="none" xmlns="http://www.w3.org/2000/svg">
<path d="M9.8335 13.8334C10.0448 13.9918 10.2907 14.0978 10.5509 14.1426C10.8112 14.1874 11.0784 14.1696 11.3304 14.0909C11.5825 14.0122 11.8123 13.8746 12.0008 13.6897C12.1893 13.5047 12.3311 13.2776 12.4146 13.0271C12.4981 12.7766 12.5209 12.5098 12.4811 12.2487C12.4413 11.9876 12.34 11.7398 12.1856 11.5255C12.0312 11.3113 11.828 11.1368 11.593 11.0165C11.3579 10.8961 11.0976 10.8334 10.8335 10.8334H0.833496" stroke="#004AAD" stroke-width="1.66667" stroke-linecap="round" stroke-linejoin="round"/>
<path d="M13.7502 4.16671C13.9632 3.88261 14.2454 3.6577 14.5698 3.51332C14.8943 3.36895 15.2502 3.3099 15.6039 3.34179C15.9576 3.37368 16.2973 3.49545 16.5907 3.69554C16.884 3.89563 17.1214 4.16739 17.2802 4.48501C17.439 4.80264 17.514 5.15559 17.4981 5.51035C17.4821 5.86511 17.3757 6.2099 17.189 6.51198C17.0023 6.81406 16.7415 7.06341 16.4313 7.23634C16.1212 7.40927 15.7719 7.50004 15.4168 7.50004H0.833496" stroke="#004AAD" stroke-width="1.66667" stroke-linecap="round" stroke-linejoin="round"/>
<path d="M7.3335 1.16671C7.54476 1.00826 7.79066 0.902276 8.05093 0.857502C8.31119 0.812729 8.57837 0.830443 8.83044 0.909185C9.08252 0.987927 9.31227 1.12544 9.50077 1.3104C9.68927 1.49536 9.83112 1.72246 9.91463 1.97299C9.99815 2.22353 10.0209 2.49032 9.9811 2.75139C9.94127 3.01245 9.83998 3.26032 9.68557 3.47456C9.53115 3.6888 9.32804 3.86327 9.09296 3.98361C8.85789 4.10395 8.59758 4.16671 8.3335 4.16671H0.833496" stroke="#004AAD" stroke-width="1.66667" stroke-linecap="round" stroke-linejoin="round"/>
</svg>
