<svg width="19" height="18" viewBox="0 0 19 18" fill="none" xmlns="http://www.w3.org/2000/svg">
<path d="M4.16683 8.33337H2.50016C2.05814 8.33337 1.63421 8.15778 1.32165 7.84522C1.00909 7.53266 0.833496 7.10873 0.833496 6.66671V2.50004C0.833496 2.05801 1.00909 1.63409 1.32165 1.32153C1.63421 1.00897 2.05814 0.833374 2.50016 0.833374H15.8335C16.2755 0.833374 16.6994 1.00897 17.012 1.32153C17.3246 1.63409 17.5002 2.05801 17.5002 2.50004V6.66671C17.5002 7.10873 17.3246 7.53266 17.012 7.84522C16.6994 8.15778 16.2755 8.33337 15.8335 8.33337H14.1668" stroke="#004AAD" stroke-width="1.66667" stroke-linecap="round" stroke-linejoin="round"/>
<path d="M4.1665 5.00012H14.1665" stroke="#004AAD" stroke-width="1.66667" stroke-linecap="round" stroke-linejoin="round"/>
<path d="M14.4168 13.0834C14.7694 13.452 14.9745 13.9372 14.9932 14.447C15.0119 14.9568 14.8429 15.4557 14.5182 15.8492C14.1936 16.2427 13.7358 16.5034 13.2318 16.5819C12.7277 16.6604 12.2124 16.5512 11.7835 16.275C11.5046 16.0922 11.2731 15.8457 11.108 15.556C10.9428 15.2663 10.8487 14.9415 10.8335 14.6084V8.33337" stroke="#004AAD" stroke-width="1.66667" stroke-linecap="round" stroke-linejoin="round"/>
<path d="M4.66634 11.3334C4.46943 11.5264 4.3235 11.7654 4.24163 12.0287C4.15977 12.292 4.14453 12.5716 4.19728 12.8422C4.25003 13.1129 4.36912 13.3663 4.54387 13.5796C4.71863 13.7929 4.94359 13.9596 5.19859 14.0646C5.45359 14.1696 5.73066 14.2097 6.00496 14.1812C6.27926 14.1528 6.54222 14.0568 6.77027 13.9017C6.99832 13.7467 7.18434 13.5374 7.31164 13.2928C7.43894 13.0482 7.50355 12.7758 7.49967 12.5V8.33337" stroke="#004AAD" stroke-width="1.66667" stroke-linecap="round" stroke-linejoin="round"/>
</svg>
