<svg width="149" height="724" viewBox="0 0 149 724" fill="none" xmlns="http://www.w3.org/2000/svg">
<path d="M112.037 4.38159L138.91 49.058L112.037 93.7344L138.91 138.411L112.037 183.087L138.91 227.764L112.037 272.44L138.91 317.117L112.037 361.793L138.91 406.469L112.037 451.146L138.91 495.822L112.037 540.499L138.91 585.175L112.037 629.851L138.91 674.528L112.037 719.204" stroke="#347DE4" stroke-width="17"/>
<path d="M60.9783 4.38129L87.8513 49.0577L60.9783 93.7341L87.8513 138.411L60.9783 183.087L87.8513 227.763L60.9783 272.44L87.8513 317.116L60.9783 361.793L87.8513 406.469L60.9782 451.145L87.8513 495.822L60.9782 540.498L87.8513 585.175L60.9782 629.851L87.8513 674.528L60.9782 719.204" stroke="#347DE4" stroke-width="17"/>
<path d="M9.91919 4.38147L36.7923 49.0579L9.91918 93.7343L36.7922 138.411L9.91918 183.087L36.7922 227.764L9.91918 272.44L36.7922 317.116L9.91917 361.793L36.7922 406.469L9.91917 451.146L36.7922 495.822L9.91916 540.498L36.7922 585.175L9.91916 629.851L36.7922 674.528L9.91915 719.204" stroke="#347DE4" stroke-width="17"/>
</svg>
