<svg width="724" height="149" viewBox="0 0 724 149" fill="none" xmlns="http://www.w3.org/2000/svg">
<path d="M4.38135 36.7939L49.0688 9.91907L93.7563 36.7939L138.444 9.91907L183.131 36.794L227.819 9.91908L272.506 36.794L317.194 9.91908L361.881 36.794L406.569 9.91909L451.256 36.794L495.944 9.91909L540.631 36.794L585.318 9.91909L630.006 36.794L674.693 9.9191L719.381 36.794" stroke="#347DE4" stroke-width="17"/>
<path d="M4.38086 87.8564L49.0683 60.9816L93.7558 87.8564L138.443 60.9816L183.131 87.8565L227.818 60.9816L272.506 87.8565L317.193 60.9816L361.881 87.8565L406.568 60.9816L451.256 87.8565L495.943 60.9816L540.63 87.8565L585.318 60.9816L630.005 87.8565L674.693 60.9816L719.38 87.8565" stroke="#347DE4" stroke-width="17"/>
<path d="M4.38135 138.919L49.0688 112.044L93.7563 138.919L138.444 112.044L183.131 138.919L227.819 112.044L272.506 138.919L317.194 112.044L361.881 138.919L406.569 112.044L451.256 138.919L495.944 112.044L540.631 138.919L585.318 112.044L630.006 138.919L674.693 112.044L719.381 138.919" stroke="#347DE4" stroke-width="17"/>
</svg>
