<svg width="1440" height="530" viewBox="0 0 1440 530" fill="none" xmlns="http://www.w3.org/2000/svg">
<g clip-path="url(#clip0_4014_4247)">
<path d="M1029.21 -20.998L1079.8 -8.40917L1092.39 42.184L1142.98 54.7728L1155.57 105.366L1206.16 117.955L1218.75 168.548L1269.35 181.137L1281.93 231.73L1332.53 244.319L1345.12 294.912L1395.71 307.501L1408.3 358.094L1458.89 370.683L1471.48 421.276L1522.07 433.865L1534.66 484.458" stroke="#347DE4" stroke-width="17"/>
<path d="M993.103 15.1057L1043.7 27.6946L1056.28 78.2877L1106.88 90.8766L1119.47 141.47L1170.06 154.059L1182.65 204.652L1233.24 217.241L1245.83 267.834L1296.42 280.423L1309.01 331.016L1359.61 343.605L1372.19 394.198L1422.79 406.787L1435.38 457.38L1485.97 469.969L1498.56 520.562" stroke="#347DE4" stroke-width="17"/>
<path d="M956.999 51.2102L1007.59 63.7991L1020.18 114.392L1070.77 126.981L1083.36 177.574L1133.96 190.163L1146.54 240.756L1197.14 253.345L1209.73 303.938L1260.32 316.527L1272.91 367.12L1323.5 379.709L1336.09 430.302L1386.68 442.891L1399.27 493.484L1449.87 506.073L1462.45 556.666" stroke="#347DE4" stroke-width="17"/>
<path d="M493.087 -484.894L543.681 -472.305L556.269 -421.712L606.863 -409.123L619.451 -358.53L670.045 -345.941L682.633 -295.348L733.226 -282.759L745.815 -232.166L796.408 -219.577L808.997 -168.984L859.59 -156.395L872.179 -105.802L922.772 -93.2134L935.361 -42.6203L985.954 -30.0314L998.543 20.5617" stroke="#347DE4" stroke-width="17"/>
<path d="M456.983 -448.79L507.577 -436.201L520.165 -385.608L570.759 -373.019L583.347 -322.426L633.94 -309.837L646.529 -259.244L697.122 -246.655L709.711 -196.062L760.304 -183.473L772.893 -132.88L823.486 -120.291L836.075 -69.6978L886.668 -57.1089L899.257 -6.5158L949.85 6.07308L962.439 56.6662" stroke="#347DE4" stroke-width="17"/>
</g>
<defs>
<clipPath id="clip0_4014_4247">
<rect width="1440" height="530" fill="white"/>
</clipPath>
</defs>
</svg>
