<svg width="176" height="25" viewBox="0 0 176 25" fill="none" xmlns="http://www.w3.org/2000/svg">
<path d="M5.7512 19.0234L13.0764 18.9886L13.1024 23.954L0.112429 24.0237L0 1.03484L5.66471 1L5.7512 19.0234Z" fill="#004AAD"/>
<path d="M27.1865 9.96563L36.5268 9.91337L36.596 23.2415L32.5485 23.2676L31.995 21.5515C30.6394 22.9061 28.7454 23.5856 26.313 23.5986C23.0656 23.6161 20.3024 22.4793 18.0192 20.1839C15.7122 17.9081 14.5512 15.1357 14.5339 11.8647C14.5166 8.5958 15.6495 5.79951 17.9327 3.4758C20.1921 1.17604 22.9445 0.0174566 26.192 3.42016e-05C28.0773 -0.00432111 29.8437 0.407282 31.4934 1.23702C33.141 2.06894 34.5052 3.21446 35.5841 4.67794L31.2253 8.00562C30.0189 6.38098 28.3541 5.57302 26.2265 5.58391C24.4623 5.59697 22.9942 6.19805 21.8245 7.38712C20.6526 8.57838 20.071 10.0615 20.0775 11.8385C20.0883 13.6156 20.6851 15.0943 21.8677 16.2725C23.0483 17.4529 24.5228 18.0365 26.2871 18.0235C28.2524 18.0191 29.8329 17.2983 31.0264 15.8631L31.0178 14.9136L27.2125 14.931L27.1865 9.96563Z" fill="#004AAD"/>
<path d="M56.684 1.02613L62.34 1L62.4524 23.9888L56.5196 24.015L46.0118 9.41501L46.0896 24.0672L40.4249 24.1021L40.3125 1.11325L46.2194 1.0784L56.7531 15.6174L56.684 1.02613Z" fill="#004AAD"/>
<path d="M91.728 5.96538L82.725 6.00893L82.7509 10.0596L90.474 10.0248L90.4999 14.9902L82.7769 15.025L82.8201 24.0324L77.1554 24.0672L77.043 1.0784L91.7107 1L91.728 5.96538Z" fill="#FF914D"/>
<path d="M94.9232 24.0237L94.8108 1.03484L100.476 1L100.588 23.9888L94.9232 24.0237Z" fill="#FF914D"/>
<path d="M110.816 19.0234L118.141 18.9886L118.167 23.954L105.177 24.0237L105.065 1.03484L110.729 1L110.816 19.0234Z" fill="#FF914D"/>
<path d="M135.399 1L135.417 5.96538L129.821 5.99151L129.916 24.015L124.286 24.0498L124.191 6.02636L118.561 6.05249L118.543 1.08711L135.399 1Z" fill="#FF914D"/>
<path d="M152.881 5.96538L143.878 6.00893L143.904 10.0596L151.627 10.0248L151.653 14.9902L143.93 15.025L143.947 19.067L152.95 19.0234L152.976 23.9888L138.308 24.0672L138.196 1.0784L152.864 1L152.881 5.96538Z" fill="#FF914D"/>
<path d="M169.152 14.7812L175.517 23.9454L169.039 23.9715L163.643 15.4868H162.276L162.32 24.0064L156.655 24.0412L156.542 1.05239L166.618 1.00013C168.601 0.989238 170.255 1.67742 171.582 3.06468C172.907 4.44758 173.576 6.14844 173.589 8.16944C173.593 9.72656 173.193 11.0964 172.386 12.2811C171.56 13.4898 170.484 14.3239 169.152 14.7812ZM165.744 10.8699C166.454 10.8699 167.042 10.6325 167.509 10.1556C167.958 9.68518 168.179 9.10589 168.175 8.41335C168.168 7.71645 167.941 7.1328 167.491 6.6624C167.018 6.19853 166.428 5.9655 165.718 5.9655L162.224 5.98293L162.25 10.8873L165.744 10.8699Z" fill="#FF914D"/>
</svg>
