<svg width="116" height="541" viewBox="0 0 116 541" fill="none" xmlns="http://www.w3.org/2000/svg">
<path d="M85.9193 4.38123L105.919 37.6312L85.9192 70.8812L105.919 104.131L85.9192 137.381L105.919 170.631L85.9192 203.881L105.919 237.131L85.9192 270.381L105.919 303.631L85.9192 336.881L105.919 370.131L85.9192 403.381L105.919 436.631L85.9192 469.881L105.919 503.131L85.9192 536.381" stroke="white" stroke-width="17"/>
<path d="M47.9193 4.38123L67.9193 37.6312L47.9192 70.8812L67.9193 104.131L47.9192 137.381L67.9193 170.631L47.9192 203.881L67.9193 237.131L47.9192 270.381L67.9193 303.631L47.9192 336.881L67.9193 370.131L47.9192 403.381L67.9193 436.631L47.9192 469.881L67.9193 503.131L47.9192 536.381" stroke="white" stroke-width="17"/>
<path d="M9.91925 4.38123L29.9193 37.6312L9.91925 70.8812L29.9193 104.131L9.91924 137.381L29.9193 170.631L9.91924 203.881L29.9193 237.131L9.91924 270.381L29.9193 303.631L9.91924 336.881L29.9193 370.131L9.91923 403.381L29.9193 436.631L9.91923 469.881L29.9193 503.131L9.91923 536.381" stroke="white" stroke-width="17"/>
</svg>
