<svg width="12" height="15" viewBox="0 0 12 15" fill="none" xmlns="http://www.w3.org/2000/svg">
<path d="M11.5 6.10007C11.5 9.59521 7.69194 13.2353 6.41319 14.3595C6.29406 14.4507 6.14905 14.5 6 14.5C5.85095 14.5 5.70594 14.4507 5.58681 14.3595C4.30806 13.2353 0.5 9.59521 0.5 6.10007C0.5 4.61484 1.07946 3.19044 2.11091 2.14022C3.14236 1.09001 4.54131 0.5 6 0.5C7.45869 0.5 8.85764 1.09001 9.88909 2.14022C10.9205 3.19044 11.5 4.61484 11.5 6.10007Z" stroke="white" stroke-linecap="round" stroke-linejoin="round"/>
<path d="M6.00002 8.20012C7.13911 8.20012 8.06252 7.2599 8.06252 6.10009C8.06252 4.94028 7.13911 4.00006 6.00002 4.00006C4.86093 4.00006 3.93752 4.94028 3.93752 6.10009C3.93752 7.2599 4.86093 8.20012 6.00002 8.20012Z" stroke="white" stroke-linecap="round" stroke-linejoin="round"/>
</svg>
