<svg width="180" height="56" viewBox="0 0 180 56" fill="none" xmlns="http://www.w3.org/2000/svg">
<g filter="url(#filter0_d_2581_3765)">
<rect x="4" width="172" height="38" rx="8" fill="white"/>
<path d="M24.5874 24.4113L30.4303 24.3837L30.451 28.3157L20.0897 28.3709L20 10.1663L24.5184 10.1387L24.5874 24.4113Z" fill="#004AAD"/>
<path d="M41.6852 17.7081L49.1354 17.6667L49.1905 28.2212L45.9621 28.2419L45.5206 26.8829C44.4393 27.9556 42.9286 28.4936 40.9884 28.504C38.3981 28.5178 36.1941 27.6176 34.373 25.7998C32.5328 23.9977 31.6067 21.8023 31.5929 19.2119C31.5791 16.6234 32.4828 14.409 34.304 12.5689C36.1062 10.7477 38.3015 9.83023 40.8919 9.81643C42.3957 9.81298 43.8047 10.1389 45.1205 10.796C46.4347 11.4548 47.5229 12.3619 48.3834 13.5208L44.9067 16.156C43.9444 14.8695 42.6164 14.2296 40.9195 14.2383C39.5122 14.2486 38.3412 14.7246 37.4082 15.6662C36.4735 16.6096 36.0096 17.784 36.0148 19.1913C36.0234 20.5985 36.4994 21.7695 37.4427 22.7025C38.3843 23.6372 39.5605 24.0994 40.9677 24.0891C42.5354 24.0856 43.7961 23.5148 44.748 22.3783L44.7411 21.6264L41.7059 21.6402L41.6852 17.7081Z" fill="#004AAD"/>
<path d="M65.2132 9.93476L69.7247 9.91406L69.8144 28.1187L65.0821 28.1394L56.7007 16.5778L56.7627 28.1808L52.2443 28.2084L52.1547 10.0037L56.8662 9.97615L65.2684 21.4894L65.2132 9.93476Z" fill="#004AAD"/>
<path d="M93.1657 13.7328L85.9846 13.7673L86.0053 16.975L92.1655 16.9474L92.1862 20.8795L86.026 20.9071L86.0605 28.0399L81.5421 28.0675L81.4524 9.86287L93.1519 9.80078L93.1657 13.7328Z" fill="#FF914D"/>
<path d="M95.7146 27.9959L95.6249 9.79127L100.143 9.76367L100.233 27.9683L95.7146 27.9959Z" fill="#FF914D"/>
<path d="M108.392 23.9933L114.234 23.9657L114.255 27.8978L103.894 27.953L103.804 9.7483L108.323 9.7207L108.392 23.9933Z" fill="#FF914D"/>
<path d="M128 9.625L128.013 13.557L123.55 13.5777L123.626 27.8504L119.135 27.878L119.059 13.6053L114.569 13.626L114.555 9.69398L128 9.625Z" fill="#FF914D"/>
<path d="M141.944 13.4848L134.763 13.5193L134.783 16.727L140.943 16.6994L140.964 20.6314L134.804 20.659L134.818 23.8599L141.999 23.8254L142.02 27.7574L130.32 27.8195L130.23 9.61482L141.93 9.55273L141.944 13.4848Z" fill="#FF914D"/>
<path d="M154.923 20.4113L160 27.6683L154.833 27.689L150.529 20.9701H149.439L149.473 27.7166L144.955 27.7442L144.865 9.53954L152.902 9.49815C154.483 9.48952 155.802 10.0345 156.861 11.133C157.919 12.2282 158.451 13.5751 158.462 15.1755C158.465 16.4085 158.146 17.4933 157.503 18.4315C156.844 19.3886 155.985 20.0491 154.923 20.4113ZM152.205 17.3139C152.771 17.3139 153.24 17.126 153.612 16.7483C153.971 16.3758 154.147 15.917 154.143 15.3686C154.138 14.8168 153.957 14.3546 153.598 13.9821C153.221 13.6147 152.75 13.4302 152.184 13.4302L149.397 13.444L149.418 17.3277L152.205 17.3139Z" fill="#FF914D"/>
<path d="M90 48L83.0718 36L96.9282 36L90 48Z" fill="white"/>
</g>
<defs>
<filter id="filter0_d_2581_3765" x="0" y="0" width="180" height="56" filterUnits="userSpaceOnUse" color-interpolation-filters="sRGB">
<feFlood flood-opacity="0" result="BackgroundImageFix"/>
<feColorMatrix in="SourceAlpha" type="matrix" values="0 0 0 0 0 0 0 0 0 0 0 0 0 0 0 0 0 0 127 0" result="hardAlpha"/>
<feOffset dy="4"/>
<feGaussianBlur stdDeviation="2"/>
<feComposite in2="hardAlpha" operator="out"/>
<feColorMatrix type="matrix" values="0 0 0 0 0 0 0 0 0 0 0 0 0 0 0 0 0 0 0.07 0"/>
<feBlend mode="normal" in2="BackgroundImageFix" result="effect1_dropShadow_2581_3765"/>
<feBlend mode="normal" in="SourceGraphic" in2="effect1_dropShadow_2581_3765" result="shape"/>
</filter>
</defs>
</svg>
