<svg width="11" height="16" viewBox="0 0 11 16" fill="none" xmlns="http://www.w3.org/2000/svg">
<path d="M7.3623 0C9.15302 0 10.5994 1.41117 10.5996 3.13281V12.4668C10.5994 14.1884 9.15302 15.5996 7.3623 15.5996H3.2373C1.44659 15.5996 0.000182125 14.1884 0 12.4668V3.13281C0.000182392 1.41117 1.44659 0 3.2373 0H7.3623ZM3.2373 0.933594C1.99568 0.933594 0.974791 1.91408 0.974609 3.13281V12.4668C0.974791 13.6855 1.99568 14.666 3.2373 14.666H7.3623C8.60393 14.666 9.62482 13.6855 9.625 12.4668V3.13281C9.62482 1.91408 8.60393 0.933594 7.3623 0.933594H3.2373ZM5.9873 12C6.26219 12 6.47461 12.215 6.47461 12.4668C6.47443 12.7184 6.26208 12.9336 5.9873 12.9336H4.6123C4.33753 12.9336 4.12518 12.7184 4.125 12.4668C4.125 12.215 4.33742 12 4.6123 12H5.9873Z" fill="white"/>
</svg>
