<svg width="68" height="68" viewBox="0 0 68 68" fill="none" xmlns="http://www.w3.org/2000/svg">
<circle cx="34" cy="34" r="33" stroke="#004AAD" stroke-width="2"/>
<path d="M36.75 42.7083V24.9583C36.75 24.1737 36.4383 23.4213 35.8835 22.8665C35.3287 22.3117 34.5763 22 33.7917 22H21.9583C21.1737 22 20.4213 22.3117 19.8665 22.8665C19.3117 23.4213 19 24.1737 19 24.9583V41.2292C19 41.6215 19.1558 41.9977 19.4332 42.2751C19.7106 42.5525 20.0869 42.7083 20.4792 42.7083H23.4375" stroke="#004AAD" stroke-width="2" stroke-linecap="round" stroke-linejoin="round"/>
<path d="M38.2285 42.7083H29.3535" stroke="#004AAD" stroke-width="2" stroke-linecap="round" stroke-linejoin="round"/>
<path d="M44.1458 42.7082H47.1042C47.4965 42.7082 47.8727 42.5523 48.1501 42.2749C48.4275 41.9975 48.5833 41.6213 48.5833 41.229V35.83C48.5827 35.4944 48.468 35.1689 48.2579 34.907L43.1104 28.4727C42.9721 28.2994 42.7966 28.1595 42.5969 28.0632C42.3972 27.967 42.1784 27.9168 41.9567 27.9165H36.75" stroke="#004AAD" stroke-width="2" stroke-linecap="round" stroke-linejoin="round"/>
<path d="M41.1868 45.6667C42.8207 45.6667 44.1452 44.3422 44.1452 42.7083C44.1452 41.0745 42.8207 39.75 41.1868 39.75C39.553 39.75 38.2285 41.0745 38.2285 42.7083C38.2285 44.3422 39.553 45.6667 41.1868 45.6667Z" stroke="#004AAD" stroke-width="2" stroke-linecap="round" stroke-linejoin="round"/>
<path d="M26.3958 45.6667C28.0297 45.6667 29.3542 44.3422 29.3542 42.7083C29.3542 41.0745 28.0297 39.75 26.3958 39.75C24.762 39.75 23.4375 41.0745 23.4375 42.7083C23.4375 44.3422 24.762 45.6667 26.3958 45.6667Z" stroke="#004AAD" stroke-width="2" stroke-linecap="round" stroke-linejoin="round"/>
</svg>
